<svg xmlns="http://www.w3.org/2000/svg" width="268.128" height="60.132" viewBox="0 0 268.128 60.132">
  <g id="Group_10" data-name="Group 10" transform="translate(0.5 0.402)">
    <g id="Group_7" data-name="Group 7">
      <path id="Path_34" data-name="Path 34" d="M3.64,55.3A3.452,3.452,0,0,0,0,54.706v1.377a3.065,3.065,0,0,0,3.048,3.051h.4C4.131,57.757,4.526,56.282,3.64,55.3Z" fill="#333" stroke="#333" stroke-width="1"/>
      <path id="Path_35" data-name="Path 35" d="M4.033,42.409C1.279,45.163,1.868,50.278,5.312,53.82c3.542,3.542,8.562,4.134,11.414,1.38,2.757-2.757,2.165-7.872-1.279-11.414C11.9,40.244,6.79,39.652,4.033,42.409Zm12.1,12a5.561,5.561,0,0,1-4.922,1.475,5.486,5.486,0,0,0,3.643-1.868c2.263-2.561,1.475-6.888-1.773-9.645-2.558-2.165-5.9-2.656-8.265-1.377,2.459-2.459,6.986-1.871,10.135,1.279C18,47.328,18.6,51.854,16.137,54.412Z" fill="none" stroke="#333" stroke-width="1"/>
      <path id="Path_36" data-name="Path 36" d="M24.7,31.485H3.048A3.065,3.065,0,0,0,0,34.536v4.919a3.049,3.049,0,0,0,2.067.788c1.671-.2,1.377-1.969.687-3.444A11.974,11.974,0,0,1,8.069,36.3c.2,1.181.785,2.558,2.067,2.659.785,0,1.377-.69,1.769-1.576a17.2,17.2,0,0,1,4.723,2.953,2.236,2.236,0,0,0,.1,2.459c.69.788,1.576.687,2.558.393a19.616,19.616,0,0,1,2.561,4.625c-.788.494-1.478,1.181-1.279,2.165.2.788,1.079,1.181,2.162,1.377a12.618,12.618,0,0,1-.491,5.118c-1.083-.494-2.361-.886-3.051-.1-.589.687-.294,1.671.2,2.852H24.6a3.067,3.067,0,0,0,3.051-3.051V34.536A2.922,2.922,0,0,0,24.7,31.485Z" fill="#333" stroke="#333" stroke-width="1"/>
      <path id="Path_37" data-name="Path 37" d="M45.556,20.859a7.472,7.472,0,0,1-7.477-7.477,7,7,0,0,1,.294-2.067l3.836,4.033,4.526-1.083,1.377-4.428L44.472,6a4.8,4.8,0,0,1,1.181-.1,7.476,7.476,0,0,1,7.48,7.48,7.082,7.082,0,0,1-.592,2.852l6.889,7.083V3.149A3.065,3.065,0,0,0,56.378.1H34.73a3.065,3.065,0,0,0-3.051,3.051V24.7a3.065,3.065,0,0,0,3.051,3.051H55.2l-7.084-7.28a7.341,7.341,0,0,1-2.557.392Z" fill="#333" stroke="#333" stroke-width="1"/>
      <path id="Path_38" data-name="Path 38" d="M53.82,35.422a2.164,2.164,0,1,0,2.17,2.163A2.164,2.164,0,0,0,53.82,35.422Zm0,3.542A1.477,1.477,0,1,1,55.3,37.486a1.515,1.515,0,0,1-1.475,1.479Z" fill="#333"/>
      <path id="Path_39" data-name="Path 39" d="M56.28,31.485H34.73a3.065,3.065,0,0,0-3.051,3.051V56.083a3.065,3.065,0,0,0,3.051,3.051H56.28a3.065,3.065,0,0,0,3.05-3.051V34.536a3.065,3.065,0,0,0-3.05-3.051Zm-8.95,9.151.589.592L46.64,42.507l-.592-.592Zm1.083,1.083L49.692,43l-1.279,1.279L47.13,43Zm-3.248.294.589.592-1.279,1.279-.589-.592Zm-8.07,13.579a1.462,1.462,0,0,1-1.279-1.279l2.852-2.855,1.279,1.279Zm3.444-3.248-1.577-1.576.2-.984,2.26,2.263Zm1.671-.491L39.456,49.1l4.526-4.528,2.754,2.757Zm2.757-7.48,1.279-1.279,1.965,1.974L46.93,46.343Zm3.048,3.149-.589-.592L48.7,45.651l.589.592Zm1.475-2.165-.589-.589,1.279-1.28.592.592ZM50.573,42.8,48.607,40.83l.589-.589,1.969,1.966Zm1.083-1.083L49.69,39.747l.589-.589,1.969,1.966Zm4.036-2.067-1.279,1.083H52.93l-2.357-2.364V36.9l1.083-1.279a3.162,3.162,0,0,1,2.165-.984,2.855,2.855,0,0,1,2.855,2.852,2.823,2.823,0,0,1-.985,2.165Z" fill="#333"/>
      <circle id="Ellipse_2" data-name="Ellipse 2" cx="1.181" cy="1.181" r="1.181" transform="translate(11.315 13.972)" fill="#333"/>
      <path id="Path_40" data-name="Path 40" d="M24.7,0H3.048A3.065,3.065,0,0,0,0,3.05V24.009l.1.1.687.687L7.773,17.81a5.842,5.842,0,0,1,1.184.984,10.691,10.691,0,0,1,.981,1.181L2.95,26.959l.69.69.1.1H24.7A3.065,3.065,0,0,0,27.747,24.7V3.15A3.151,3.151,0,0,0,24.7,0ZM19.385,18.2,11.9,25.677c-.1.1-.1.1-.2.1s-.294-.1-.2-.294a7.621,7.621,0,0,0-1.083-6A10.191,10.191,0,0,0,9.438,18.3a10.138,10.138,0,0,0-1.181-.984,8.174,8.174,0,0,0-4.232-1.279,10.85,10.85,0,0,0-1.769.2h-.1a.266.266,0,0,1-.2-.393l7.48-7.48a.491.491,0,0,1,.589,0l9.254,9.246c.3.2.3.4.1.592Zm2.26-2.263-.785.785a.368.368,0,0,1-.592,0L11.019,7.477a.368.368,0,0,1,0-.589l.788-.788a.368.368,0,0,1,.589,0l9.249,9.25a.607.607,0,0,1,0,.591Zm2.165-2.165-.785.788a.371.371,0,0,1-.592,0L13.179,5.315a.371.371,0,0,1,0-.592l.788-.788a.368.368,0,0,1,.589,0L23.8,13.184a.623.623,0,0,1,0,.591Z" fill="#333"/>
    </g>
    <g id="Group_8" data-name="Group 8">
      <path id="Path_41" data-name="Path 41" d="M73.5,26.763,79.9.1h8.167l6.394,26.665v.69H89.243l-1.082-4.922H79.9l-1.085,4.922H73.6v-.69ZM87.078,18.2,85.8,12.4a47.279,47.279,0,0,1-1.478-7.97h-.589a49.132,49.132,0,0,1-1.475,7.97L80.978,18.2Z" fill="#333"/>
      <path id="Path_42" data-name="Path 42" d="M97.214.1h14.953c2.855,0,3.741,1.475,3.741,4.428V8.461c0,2.165,0,2.757-1.478,3.542l-2.263,1.181v.1l2.561,1.181c1.573.886,1.573,1.576,1.573,3.643v4.919a5.258,5.258,0,0,1-.788,3.346c-.491.785-1.475,1.083-2.95,1.083H97.214Zm11.9,11.218,1.674-1.279V4.428h-8.169v6.788h6.5Zm1.774,11.708v-6.4l-1.769-1.181h-6.4v7.578Z" fill="#333"/>
      <path id="Path_43" data-name="Path 43" d="M118.465.1h18.694V4.624h-6.593v22.73h-5.41V4.624h-6.593V.1Z" fill="#333"/>
      <path id="Path_44" data-name="Path 44" d="M139.423,3.738c0-2.459,1.279-3.64,3.935-3.64h11.316c2.558,0,3.935,1.181,3.935,3.64V23.416c0,2.656-1.279,3.938-3.935,3.938H143.358c-2.656,0-3.935-1.282-3.935-3.938ZM153.1,23.024V4.428h-8.262v18.6Z" fill="#333"/>
    </g>
    <g id="Group_9" data-name="Group 9">
      <path id="Path_45" data-name="Path 45" d="M73.5,31.878h19.09V59.233H87.176V36.208H78.911V59.133H73.5Z" fill="#333"/>
      <path id="Path_46" data-name="Path 46" d="M97.312,31.878H111.48c2.558,0,3.836,1.282,3.836,3.938v9.543q0,3.836-3.836,3.836h-8.758v9.938h-5.41Zm12.6,13.089V36.208h-7.185v8.758Z" fill="#333"/>
      <path id="Path_47" data-name="Path 47" d="M119.054,31.878h5.413V43.1c0,2.165-.294,5.511-.491,7.676h.294l8.068-18.894h6V59.233h-5.41V48.015a65.761,65.761,0,0,1,.494-7.673h-.294l-8.069,18.891h-6Z" fill="#333"/>
      <path id="Path_48" data-name="Path 48" d="M142.671,35.521c0-2.463,1.279-3.643,3.935-3.643h11.316c2.558,0,3.935,1.181,3.935,3.643V55.2c0,2.656-1.279,3.935-3.935,3.935H146.606c-2.656,0-3.935-1.279-3.935-3.935ZM156.348,54.8V36.2h-8.267V54.8Z" fill="#333"/>
      <path id="Path_49" data-name="Path 49" d="M165.99,31.878h14.168c2.558,0,3.836,1.282,3.836,3.938v9.543q0,3.836-3.836,3.836H171.4v9.938H165.99Zm12.693,13.089V36.208H171.5v8.758Z" fill="#333"/>
      <path id="Path_50" data-name="Path 50" d="M187.833,31.878h5.41V43.1c0,2.165-.294,5.511-.491,7.676h.294l8.068-18.894h6V59.233H201.7V48.015a65.76,65.76,0,0,1,.491-7.673H201.9l-8.067,18.891h-6Z" fill="#333"/>
      <path id="Path_51" data-name="Path 51" d="M209.972,31.878h18.694V36.4h-6.593V59.133h-5.41V36.4H210.07V31.878Z" fill="#333"/>
      <path id="Path_52" data-name="Path 52" d="M231.322,31.878h15.842v4.33H236.735V43h9.347v4.33h-9.347v7.477h10.724v4.328H231.322Z" fill="#333"/>
      <path id="Path_53" data-name="Path 53" d="M248.934,31.878h18.694V36.4h-6.589V59.133h-5.414V36.4h-6.593V31.878Z" fill="#333"/>
    </g>
  </g>
</svg>
