<svg xmlns="http://www.w3.org/2000/svg" width="47.561" height="44.444"><defs><style>.a{fill:#58585a}</style></defs><path class="a" d="M14.675 44.444a.929.929 0 01-.929-.929v-6.067a19.226 19.226 0 01-9.634-6.5A18.906 18.906 0 010 19.106 19.128 19.128 0 0119.106 0h9.348a19.111 19.111 0 0116.7 28.4.929.929 0 11-1.623-.9A17.254 17.254 0 0028.454 1.858h-9.348A17.25 17.25 0 0014.9 35.837a.929.929 0 01.7.9v4.535l4.651-4.645a.929.929 0 01.657-.272h7.547a17.15 17.15 0 009.77-3.032.929.929 0 011.054 1.53 19 19 0 01-10.824 3.36h-7.163l-5.96 5.96a.929.929 0 01-.657.272z"/><path class="a" d="M41.9 32.271a.929.929 0 11.657-.272.936.936 0 01-.657.272zM24.068 18.177h-.243v-3.515a.929.929 0 10-1.858 0v3.515H19.06v-3.515a.929.929 0 10-1.858 0v4.444a.929.929 0 00.929.929h3.836v3.525a.929.929 0 101.858 0v-3.525h.243a.929.929 0 000-1.858zm-10.373 6.312H9.246a.929.929 0 01-.657-1.586l2.876-2.876a4.413 4.413 0 001.3-3.141 1.3 1.3 0 00-2.591 0 .929.929 0 01-1.858 0 3.154 3.154 0 116.307 0 6.259 6.259 0 01-1.842 4.455l-1.291 1.291h2.207a.929.929 0 110 1.858zm20.169.001a.929.929 0 01-.83-1.345l3.777-7.554h-2.946a.929.929 0 110-1.858h4.449a.929.929 0 01.831 1.344l-4.449 8.9a.929.929 0 01-.832.513zm-6.708 1.49a.93.93 0 01-.9-1.17l3.186-11.89a.93.93 0 111.795.481l-3.186 11.89a.929.929 0 01-.895.689z"/></svg>