<svg xmlns="http://www.w3.org/2000/svg" width="51.812" height="47.111"><defs><style>.a{fill:#58585a}</style></defs><path class="a" d="M49.001 0H2.81A2.813 2.813 0 00.001 2.81v10.175a.766.766 0 101.533 0V2.81A1.279 1.279 0 012.81 1.533h46.191a1.279 1.279 0 011.278 1.277v30.658a1.279 1.279 0 01-1.278 1.278H33.133a7.321 7.321 0 000-2.146h9.941a.766.766 0 00.766-.766 3.53 3.53 0 013.526-3.526.766.766 0 00.766-.766V14.5a.766.766 0 00-1.533 0v12.33a5.07 5.07 0 00-4.234 4.234h-9.634a7.3 7.3 0 00-13.649 0H9.446a5.07 5.07 0 00-4.234-4.234V9.446a5.07 5.07 0 004.234-4.234h32.92a5.071 5.071 0 004.235 4.234v1.482a.766.766 0 101.533 0v-2.19a.766.766 0 00-.766-.766 3.53 3.53 0 01-3.527-3.527.766.766 0 00-.766-.766H8.737a.766.766 0 00-.766.766 3.53 3.53 0 01-3.526 3.526.766.766 0 00-.766.766v18.8a.766.766 0 00.766.766 3.53 3.53 0 013.526 3.53.766.766 0 00.766.766h9.941a7.324 7.324 0 000 2.146H2.81a1.279 1.279 0 01-1.277-1.278V16.549a.766.766 0 00-1.533 0v16.919a2.813 2.813 0 002.81 2.81h16.271a7.3 7.3 0 001.051 1.864v8.2a.767.767 0 001.056.71l4.713-1.924 4.718 1.926a.767.767 0 001.056-.71v-2.192a.766.766 0 00-1.533 0V45.2l-3.951-1.613a.77.77 0 00-.579 0L21.665 45.2v-5.583a7.283 7.283 0 008.482 0v.953a.766.766 0 101.533 0v-2.427a7.3 7.3 0 001.051-1.864h16.27a2.813 2.813 0 002.81-2.81V2.81A2.813 2.813 0 0049.001 0zm-23.1 39.446a5.774 5.774 0 115.774-5.774 5.78 5.78 0 01-5.774 5.774zm0 0"/><path class="a" d="M32.651 10.117a.766.766 0 100-1.533h-13.49a.766.766 0 100 1.533zm5.109 2.555H14.051a.766.766 0 000 1.533H37.76a.766.766 0 100-1.533zm0 4.088H14.051a.766.766 0 000 1.533H37.76a.766.766 0 100-1.533zm.001 4.7h-3.679a.766.766 0 100 1.533h3.679a.766.766 0 100-1.533zm-23.71 0a.766.766 0 000 1.533h3.679a.766.766 0 000-1.533zm11.855 8.176a4.037 4.037 0 104.037 4.037 4.041 4.041 0 00-4.037-4.037zm0 6.541a2.5 2.5 0 112.5-2.5 2.507 2.507 0 01-2.5 2.5zM23.3 22.226a2.606 2.606 0 102.606-2.606 2.609 2.609 0 00-2.606 2.606zm3.679 0a1.073 1.073 0 11-1.073-1.073 1.074 1.074 0 011.073 1.073zm0 0"/></svg>