<svg xmlns="http://www.w3.org/2000/svg" width="52.053" height="32.927"><defs><style>.a{fill:#58585a}</style></defs><path class="a" d="M48.409 13.959l-1.348-5.392a.815.815 0 00.645-.8v-.869a3.427 3.427 0 00-3.423-3.423h-6.14V1.684A1.686 1.686 0 0036.459 0H5.162a1.686 1.686 0 00-1.684 1.684v14.779a.815.815 0 001.63 0V1.684a.054.054 0 01.054-.054h31.3a.054.054 0 01.054.054v14.779a.815.815 0 101.63 0v-.925h9.619a2.667 2.667 0 012.533 1.847H47.76a.815.815 0 00-.815.815v1.738a2.557 2.557 0 002.554 2.554h.924v3.586h-2.131a5.16 5.16 0 00-9.756 0h-.392v-6.14a.815.815 0 10-1.63 0v6.14H19.6a5.16 5.16 0 00-9.756 0H5.162a.054.054 0 01-.054-.054v-1.786h3.531a.815.815 0 100-1.63H.815a.815.815 0 100 1.63h2.662v1.793a1.686 1.686 0 001.684 1.684h4.4v.054a5.162 5.162 0 0010.324 0v-.054h18.368v.054a5.162 5.162 0 0010.324 0v-.054h2.664a.815.815 0 00.815-.815v-8.694a4.3 4.3 0 00-3.647-4.247zM38.143 5.108h6.14a1.8 1.8 0 011.793 1.793v.054h-7.933zm0 8.8V8.583h7.242l1.331 5.325zM14.725 31.297a3.532 3.532 0 113.532-3.532 3.536 3.536 0 01-3.532 3.532zm28.689 0a3.532 3.532 0 113.532-3.532 3.536 3.536 0 01-3.532 3.532zm7.009-10.432H49.5a.925.925 0 01-.924-.924v-.924h1.847v1.847z"/><path class="a" d="M14.724 26.084a1.684 1.684 0 101.684 1.684 1.686 1.686 0 00-1.684-1.684zm28.689 0a1.684 1.684 0 101.684 1.684 1.686 1.686 0 00-1.684-1.684zm-9.562-3.481H21.68a.815.815 0 100 1.63h12.171a.815.815 0 100-1.63zm-20.865-3.477H2.554a.815.815 0 000 1.63h10.432a.815.815 0 000-1.63zM28.341 8.062a.815.815 0 00-1.153 0L19.94 15.31l-3.77-3.77a.815.815 0 00-1.153 1.153l4.347 4.347a.815.815 0 001.152 0l7.824-7.824a.815.815 0 00.001-1.154z"/></svg>